<?xml version="1.0" encoding="utf-8" standalone="no"?>
<!DOCTYPE svg PUBLIC "-//W3C//DTD SVG 1.1//EN"
  "http://www.w3.org/Graphics/SVG/1.1/DTD/svg11.dtd">
<svg xmlns:xlink="http://www.w3.org/1999/xlink" width="239.790937pt" height="275.744062pt" viewBox="0 0 239.790937 275.744062" xmlns="http://www.w3.org/2000/svg" version="1.1">
 <metadata>
  <rdf:RDF xmlns:dc="http://purl.org/dc/elements/1.1/" xmlns:cc="http://creativecommons.org/ns#" xmlns:rdf="http://www.w3.org/1999/02/22-rdf-syntax-ns#">
   <cc:Work>
    <dc:type rdf:resource="http://purl.org/dc/dcmitype/StillImage"/>
    <dc:date>2025-07-19T21:55:57.382772</dc:date>
    <dc:format>image/svg+xml</dc:format>
    <dc:creator>
     <cc:Agent>
      <dc:title>Matplotlib v3.10.3, https://matplotlib.org/</dc:title>
     </cc:Agent>
    </dc:creator>
   </cc:Work>
  </rdf:RDF>
 </metadata>
 <defs>
  <style type="text/css">*{stroke-linejoin: round; stroke-linecap: butt}</style>
 </defs>
 <g id="figure_1">
  <g id="patch_1">
   <path d="M 0 275.744062
L 239.790937 275.744062
L 239.790937 0
L 0 0
z
" style="fill: #ffffff"/>
  </g>
  <g id="axes_1">
   <g id="patch_2">
    <path d="M 38.170938 243.98
L 236.190937 243.98
L 236.190937 20.96875
L 38.170938 20.96875
z
" style="fill: #fafafa"/>
   </g>
   <g id="matplotlib.axis_1">
    <g id="xtick_1">
     <g id="line2d_1">
      <path d="M 39.238202 243.98
L 39.238202 20.96875
" clip-path="url(#pbd712879ea)" style="fill: none; stroke: #e0e0e0; stroke-opacity: 0.3; stroke-width: 0.5; stroke-linecap: square"/>
     </g>
     <g id="line2d_2">
      <defs>
       <path id="m563e8c108b" d="M 0 0
L 0 4
" style="stroke: #333333; stroke-width: 0.8"/>
      </defs>
      <g>
       <use xlink:href="#m563e8c108b" x="39.238202" y="243.98" style="fill: #333333; stroke: #333333; stroke-width: 0.8"/>
      </g>
     </g>
     <g id="text_1">
      <!-- 1990 -->
      <g style="fill: #333333" transform="translate(29.228514 257.936094) scale(0.09 -0.09)">
       <defs>
        <path id="Helvetica-31" d="M 613 3169
L 613 3600
Q 1222 3659 1462 3798
Q 1703 3938 1822 4456
L 2266 4456
L 2266 0
L 1666 0
L 1666 3169
L 613 3169
z
" transform="scale(0.015625)"/>
        <path id="Helvetica-39" d="M 850 1081
Q 875 616 1209 438
Q 1381 344 1597 344
Q 2000 344 2284 680
Q 2569 1016 2688 2044
Q 2500 1747 2223 1626
Q 1947 1506 1628 1506
Q 981 1506 604 1909
Q 228 2313 228 2947
Q 228 3556 600 4018
Q 972 4481 1697 4481
Q 2675 4481 3047 3600
Q 3253 3116 3253 2388
Q 3253 1566 3006 931
Q 2597 -125 1619 -125
Q 963 -125 622 219
Q 281 563 281 1081
L 850 1081
z
M 1703 2000
Q 2038 2000 2314 2220
Q 2591 2441 2591 2991
Q 2591 3484 2342 3726
Q 2094 3969 1709 3969
Q 1297 3969 1055 3692
Q 813 3416 813 2953
Q 813 2516 1025 2258
Q 1238 2000 1703 2000
z
" transform="scale(0.015625)"/>
        <path id="Helvetica-30" d="M 1731 4475
Q 2600 4475 2988 3759
Q 3288 3206 3288 2244
Q 3288 1331 3016 734
Q 2622 -122 1728 -122
Q 922 -122 528 578
Q 200 1163 200 2147
Q 200 2909 397 3456
Q 766 4475 1731 4475
z
M 1725 391
Q 2163 391 2422 778
Q 2681 1166 2681 2222
Q 2681 2984 2493 3476
Q 2306 3969 1766 3969
Q 1269 3969 1039 3501
Q 809 3034 809 2125
Q 809 1441 956 1025
Q 1181 391 1725 391
z
" transform="scale(0.015625)"/>
       </defs>
       <use xlink:href="#Helvetica-31"/>
       <use xlink:href="#Helvetica-39" transform="translate(55.615234 0)"/>
       <use xlink:href="#Helvetica-39" transform="translate(111.230469 0)"/>
       <use xlink:href="#Helvetica-30" transform="translate(166.845703 0)"/>
      </g>
     </g>
    </g>
    <g id="xtick_2">
     <g id="line2d_3">
      <path d="M 92.303534 243.98
L 92.303534 20.96875
" clip-path="url(#pbd712879ea)" style="fill: none; stroke: #e0e0e0; stroke-opacity: 0.3; stroke-width: 0.5; stroke-linecap: square"/>
     </g>
     <g id="line2d_4">
      <g>
       <use xlink:href="#m563e8c108b" x="92.303534" y="243.98" style="fill: #333333; stroke: #333333; stroke-width: 0.8"/>
      </g>
     </g>
     <g id="text_2">
      <!-- 2000 -->
      <g style="fill: #333333" transform="translate(82.293846 257.936094) scale(0.09 -0.09)">
       <defs>
        <path id="Helvetica-32" d="M 200 0
Q 231 578 439 1006
Q 647 1434 1250 1784
L 1850 2131
Q 2253 2366 2416 2531
Q 2672 2791 2672 3125
Q 2672 3516 2437 3745
Q 2203 3975 1813 3975
Q 1234 3975 1013 3538
Q 894 3303 881 2888
L 309 2888
Q 319 3472 525 3841
Q 891 4491 1816 4491
Q 2584 4491 2939 4075
Q 3294 3659 3294 3150
Q 3294 2613 2916 2231
Q 2697 2009 2131 1694
L 1703 1456
Q 1397 1288 1222 1134
Q 909 863 828 531
L 3272 531
L 3272 0
L 200 0
z
" transform="scale(0.015625)"/>
       </defs>
       <use xlink:href="#Helvetica-32"/>
       <use xlink:href="#Helvetica-30" transform="translate(55.615234 0)"/>
       <use xlink:href="#Helvetica-30" transform="translate(111.230469 0)"/>
       <use xlink:href="#Helvetica-30" transform="translate(166.845703 0)"/>
      </g>
     </g>
    </g>
    <g id="xtick_3">
     <g id="line2d_5">
      <path d="M 145.383396 243.98
L 145.383396 20.96875
" clip-path="url(#pbd712879ea)" style="fill: none; stroke: #e0e0e0; stroke-opacity: 0.3; stroke-width: 0.5; stroke-linecap: square"/>
     </g>
     <g id="line2d_6">
      <g>
       <use xlink:href="#m563e8c108b" x="145.383396" y="243.98" style="fill: #333333; stroke: #333333; stroke-width: 0.8"/>
      </g>
     </g>
     <g id="text_3">
      <!-- 2010 -->
      <g style="fill: #333333" transform="translate(135.373709 257.936094) scale(0.09 -0.09)">
       <use xlink:href="#Helvetica-32"/>
       <use xlink:href="#Helvetica-30" transform="translate(55.615234 0)"/>
       <use xlink:href="#Helvetica-31" transform="translate(111.230469 0)"/>
       <use xlink:href="#Helvetica-30" transform="translate(166.845703 0)"/>
      </g>
     </g>
    </g>
    <g id="xtick_4">
     <g id="line2d_7">
      <path d="M 198.448729 243.98
L 198.448729 20.96875
" clip-path="url(#pbd712879ea)" style="fill: none; stroke: #e0e0e0; stroke-opacity: 0.3; stroke-width: 0.5; stroke-linecap: square"/>
     </g>
     <g id="line2d_8">
      <g>
       <use xlink:href="#m563e8c108b" x="198.448729" y="243.98" style="fill: #333333; stroke: #333333; stroke-width: 0.8"/>
      </g>
     </g>
     <g id="text_4">
      <!-- 2020 -->
      <g style="fill: #333333" transform="translate(188.439041 257.936094) scale(0.09 -0.09)">
       <use xlink:href="#Helvetica-32"/>
       <use xlink:href="#Helvetica-30" transform="translate(55.615234 0)"/>
       <use xlink:href="#Helvetica-32" transform="translate(111.230469 0)"/>
       <use xlink:href="#Helvetica-30" transform="translate(166.845703 0)"/>
      </g>
     </g>
    </g>
    <g id="xtick_5">
     <g id="line2d_9">
      <defs>
       <path id="mb89b7fd332" d="M 0 0
L 0 2
" style="stroke: #333333; stroke-width: 0.6"/>
      </defs>
      <g>
       <use xlink:href="#mb89b7fd332" x="65.770868" y="243.98" style="fill: #333333; stroke: #333333; stroke-width: 0.6"/>
      </g>
     </g>
    </g>
    <g id="xtick_6">
     <g id="line2d_10">
      <g>
       <use xlink:href="#mb89b7fd332" x="118.85073" y="243.98" style="fill: #333333; stroke: #333333; stroke-width: 0.6"/>
      </g>
     </g>
    </g>
    <g id="xtick_7">
     <g id="line2d_11">
      <g>
       <use xlink:href="#mb89b7fd332" x="171.916063" y="243.98" style="fill: #333333; stroke: #333333; stroke-width: 0.6"/>
      </g>
     </g>
    </g>
    <g id="xtick_8">
     <g id="line2d_12">
      <g>
       <use xlink:href="#mb89b7fd332" x="224.995925" y="243.98" style="fill: #333333; stroke: #333333; stroke-width: 0.6"/>
      </g>
     </g>
    </g>
    <g id="text_5">
     <!-- Year -->
     <g style="fill: #333333" transform="translate(127.676094 270.268125) scale(0.09 -0.09)">
      <defs>
       <path id="Helvetica-59" d="M 131 4591
L 856 4591
L 2175 2384
L 3494 4591
L 4222 4591
L 2488 1850
L 2488 0
L 1866 0
L 1866 1850
L 131 4591
z
M 2184 4591
L 2184 4591
z
" transform="scale(0.015625)"/>
       <path id="Helvetica-65" d="M 1806 3422
Q 2163 3422 2497 3255
Q 2831 3088 3006 2822
Q 3175 2569 3231 2231
Q 3281 2000 3281 1494
L 828 1494
Q 844 984 1069 676
Q 1294 369 1766 369
Q 2206 369 2469 659
Q 2619 828 2681 1050
L 3234 1050
Q 3213 866 3089 639
Q 2966 413 2813 269
Q 2556 19 2178 -69
Q 1975 -119 1719 -119
Q 1094 -119 659 336
Q 225 791 225 1609
Q 225 2416 662 2919
Q 1100 3422 1806 3422
z
M 2703 1941
Q 2669 2306 2544 2525
Q 2313 2931 1772 2931
Q 1384 2931 1121 2651
Q 859 2372 844 1941
L 2703 1941
z
M 1753 3428
L 1753 3428
z
" transform="scale(0.015625)"/>
       <path id="Helvetica-61" d="M 844 891
Q 844 647 1022 506
Q 1200 366 1444 366
Q 1741 366 2019 503
Q 2488 731 2488 1250
L 2488 1703
Q 2384 1638 2221 1594
Q 2059 1550 1903 1531
L 1563 1488
Q 1256 1447 1103 1359
Q 844 1213 844 891
z
M 2206 2028
Q 2400 2053 2466 2191
Q 2503 2266 2503 2406
Q 2503 2694 2298 2823
Q 2094 2953 1713 2953
Q 1272 2953 1088 2716
Q 984 2584 953 2325
L 428 2325
Q 444 2944 830 3186
Q 1216 3428 1725 3428
Q 2316 3428 2684 3203
Q 3050 2978 3050 2503
L 3050 575
Q 3050 488 3086 434
Q 3122 381 3238 381
Q 3275 381 3322 386
Q 3369 391 3422 400
L 3422 -16
Q 3291 -53 3222 -62
Q 3153 -72 3034 -72
Q 2744 -72 2613 134
Q 2544 244 2516 444
Q 2344 219 2022 53
Q 1700 -113 1313 -113
Q 847 -113 551 170
Q 256 453 256 878
Q 256 1344 547 1600
Q 838 1856 1309 1916
L 2206 2028
z
M 1741 3428
L 1741 3428
z
" transform="scale(0.015625)"/>
       <path id="Helvetica-72" d="M 428 3347
L 963 3347
L 963 2769
Q 1028 2938 1284 3180
Q 1541 3422 1875 3422
Q 1891 3422 1928 3419
Q 1966 3416 2056 3406
L 2056 2813
Q 2006 2822 1964 2825
Q 1922 2828 1872 2828
Q 1447 2828 1219 2554
Q 991 2281 991 1925
L 991 0
L 428 0
L 428 3347
z
" transform="scale(0.015625)"/>
      </defs>
      <use xlink:href="#Helvetica-59"/>
      <use xlink:href="#Helvetica-65" transform="translate(66.699219 0)"/>
      <use xlink:href="#Helvetica-61" transform="translate(122.314453 0)"/>
      <use xlink:href="#Helvetica-72" transform="translate(177.929688 0)"/>
     </g>
    </g>
   </g>
   <g id="matplotlib.axis_2">
    <g id="ytick_1">
     <g id="line2d_13">
      <path d="M 38.170938 243.98
L 236.190937 243.98
" clip-path="url(#pbd712879ea)" style="fill: none; stroke: #e0e0e0; stroke-opacity: 0.3; stroke-width: 0.5; stroke-linecap: square"/>
     </g>
     <g id="line2d_14">
      <defs>
       <path id="m4acfbfbb8b" d="M 0 0
L -4 0
" style="stroke: #333333; stroke-width: 0.8"/>
      </defs>
      <g>
       <use xlink:href="#m4acfbfbb8b" x="38.170938" y="243.98" style="fill: #333333; stroke: #333333; stroke-width: 0.8"/>
      </g>
     </g>
     <g id="text_6">
      <!-- 0 -->
      <g style="fill: #333333" transform="translate(25.666094 247.208047) scale(0.09 -0.09)">
       <use xlink:href="#Helvetica-30"/>
      </g>
     </g>
    </g>
    <g id="ytick_2">
     <g id="line2d_15">
      <path d="M 38.170938 201.293356
L 236.190937 201.293356
" clip-path="url(#pbd712879ea)" style="fill: none; stroke: #e0e0e0; stroke-opacity: 0.3; stroke-width: 0.5; stroke-linecap: square"/>
     </g>
     <g id="line2d_16">
      <g>
       <use xlink:href="#m4acfbfbb8b" x="38.170938" y="201.293356" style="fill: #333333; stroke: #333333; stroke-width: 0.8"/>
      </g>
     </g>
     <g id="text_7">
      <!-- 5k -->
      <g style="fill: #333333" transform="translate(21.166094 204.521403) scale(0.09 -0.09)">
       <defs>
        <path id="Helvetica-35" d="M 791 1141
Q 847 659 1238 475
Q 1438 381 1700 381
Q 2200 381 2440 700
Q 2681 1019 2681 1406
Q 2681 1875 2395 2131
Q 2109 2388 1709 2388
Q 1419 2388 1211 2275
Q 1003 2163 856 1963
L 369 1991
L 709 4400
L 3034 4400
L 3034 3856
L 1131 3856
L 941 2613
Q 1097 2731 1238 2791
Q 1488 2894 1816 2894
Q 2431 2894 2859 2497
Q 3288 2100 3288 1491
Q 3288 856 2895 371
Q 2503 -113 1644 -113
Q 1097 -113 676 195
Q 256 503 206 1141
L 791 1141
z
" transform="scale(0.015625)"/>
        <path id="Helvetica-6b" d="M 400 4591
L 941 4591
L 941 1925
L 2384 3347
L 3103 3347
L 1822 2094
L 3175 0
L 2456 0
L 1413 1688
L 941 1256
L 941 0
L 400 0
L 400 4591
z
" transform="scale(0.015625)"/>
       </defs>
       <use xlink:href="#Helvetica-35"/>
       <use xlink:href="#Helvetica-6b" transform="translate(55.615234 0)"/>
      </g>
     </g>
    </g>
    <g id="ytick_3">
     <g id="line2d_17">
      <path d="M 38.170938 158.606712
L 236.190937 158.606712
" clip-path="url(#pbd712879ea)" style="fill: none; stroke: #e0e0e0; stroke-opacity: 0.3; stroke-width: 0.5; stroke-linecap: square"/>
     </g>
     <g id="line2d_18">
      <g>
       <use xlink:href="#m4acfbfbb8b" x="38.170938" y="158.606712" style="fill: #333333; stroke: #333333; stroke-width: 0.8"/>
      </g>
     </g>
     <g id="text_8">
      <!-- 10k -->
      <g style="fill: #333333" transform="translate(16.16125 161.834759) scale(0.09 -0.09)">
       <use xlink:href="#Helvetica-31"/>
       <use xlink:href="#Helvetica-30" transform="translate(55.615234 0)"/>
       <use xlink:href="#Helvetica-6b" transform="translate(111.230469 0)"/>
      </g>
     </g>
    </g>
    <g id="ytick_4">
     <g id="line2d_19">
      <path d="M 38.170938 115.920068
L 236.190937 115.920068
" clip-path="url(#pbd712879ea)" style="fill: none; stroke: #e0e0e0; stroke-opacity: 0.3; stroke-width: 0.5; stroke-linecap: square"/>
     </g>
     <g id="line2d_20">
      <g>
       <use xlink:href="#m4acfbfbb8b" x="38.170938" y="115.920068" style="fill: #333333; stroke: #333333; stroke-width: 0.8"/>
      </g>
     </g>
     <g id="text_9">
      <!-- 15k -->
      <g style="fill: #333333" transform="translate(16.16125 119.148114) scale(0.09 -0.09)">
       <use xlink:href="#Helvetica-31"/>
       <use xlink:href="#Helvetica-35" transform="translate(55.615234 0)"/>
       <use xlink:href="#Helvetica-6b" transform="translate(111.230469 0)"/>
      </g>
     </g>
    </g>
    <g id="ytick_5">
     <g id="line2d_21">
      <path d="M 38.170938 73.233423
L 236.190937 73.233423
" clip-path="url(#pbd712879ea)" style="fill: none; stroke: #e0e0e0; stroke-opacity: 0.3; stroke-width: 0.5; stroke-linecap: square"/>
     </g>
     <g id="line2d_22">
      <g>
       <use xlink:href="#m4acfbfbb8b" x="38.170938" y="73.233423" style="fill: #333333; stroke: #333333; stroke-width: 0.8"/>
      </g>
     </g>
     <g id="text_10">
      <!-- 20k -->
      <g style="fill: #333333" transform="translate(16.16125 76.46147) scale(0.09 -0.09)">
       <use xlink:href="#Helvetica-32"/>
       <use xlink:href="#Helvetica-30" transform="translate(55.615234 0)"/>
       <use xlink:href="#Helvetica-6b" transform="translate(111.230469 0)"/>
      </g>
     </g>
    </g>
    <g id="ytick_6">
     <g id="line2d_23">
      <path d="M 38.170938 30.546779
L 236.190937 30.546779
" clip-path="url(#pbd712879ea)" style="fill: none; stroke: #e0e0e0; stroke-opacity: 0.3; stroke-width: 0.5; stroke-linecap: square"/>
     </g>
     <g id="line2d_24">
      <g>
       <use xlink:href="#m4acfbfbb8b" x="38.170938" y="30.546779" style="fill: #333333; stroke: #333333; stroke-width: 0.8"/>
      </g>
     </g>
     <g id="text_11">
      <!-- 25k -->
      <g style="fill: #333333" transform="translate(16.16125 33.774826) scale(0.09 -0.09)">
       <use xlink:href="#Helvetica-32"/>
       <use xlink:href="#Helvetica-35" transform="translate(55.615234 0)"/>
       <use xlink:href="#Helvetica-6b" transform="translate(111.230469 0)"/>
      </g>
     </g>
    </g>
    <g id="text_12">
     <!-- Monthly Submissions -->
     <g style="fill: #333333" transform="translate(10.231875 174.989531) rotate(-90) scale(0.09 -0.09)">
      <defs>
       <path id="Helvetica-4d" d="M 472 4591
L 1363 4591
L 2681 709
L 3991 4591
L 4872 4591
L 4872 0
L 4281 0
L 4281 2709
Q 4281 2850 4287 3175
Q 4294 3500 4294 3872
L 2984 0
L 2369 0
L 1050 3872
L 1050 3731
Q 1050 3563 1058 3217
Q 1066 2872 1066 2709
L 1066 0
L 472 0
L 472 4591
z
" transform="scale(0.015625)"/>
       <path id="Helvetica-6f" d="M 1741 363
Q 2300 363 2508 786
Q 2716 1209 2716 1728
Q 2716 2197 2566 2491
Q 2328 2953 1747 2953
Q 1231 2953 997 2559
Q 763 2166 763 1609
Q 763 1075 997 719
Q 1231 363 1741 363
z
M 1763 3444
Q 2409 3444 2856 3012
Q 3303 2581 3303 1744
Q 3303 934 2909 406
Q 2516 -122 1688 -122
Q 997 -122 590 345
Q 184 813 184 1600
Q 184 2444 612 2944
Q 1041 3444 1763 3444
z
M 1744 3428
L 1744 3428
z
" transform="scale(0.015625)"/>
       <path id="Helvetica-6e" d="M 413 3347
L 947 3347
L 947 2872
Q 1184 3166 1450 3294
Q 1716 3422 2041 3422
Q 2753 3422 3003 2925
Q 3141 2653 3141 2147
L 3141 0
L 2569 0
L 2569 2109
Q 2569 2416 2478 2603
Q 2328 2916 1934 2916
Q 1734 2916 1606 2875
Q 1375 2806 1200 2600
Q 1059 2434 1017 2257
Q 975 2081 975 1753
L 975 0
L 413 0
L 413 3347
z
M 1734 3428
L 1734 3428
z
" transform="scale(0.015625)"/>
       <path id="Helvetica-74" d="M 525 4281
L 1094 4281
L 1094 3347
L 1628 3347
L 1628 2888
L 1094 2888
L 1094 703
Q 1094 528 1213 469
Q 1278 434 1431 434
Q 1472 434 1519 436
Q 1566 438 1628 444
L 1628 0
Q 1531 -28 1426 -40
Q 1322 -53 1200 -53
Q 806 -53 665 148
Q 525 350 525 672
L 525 2888
L 72 2888
L 72 3347
L 525 3347
L 525 4281
z
" transform="scale(0.015625)"/>
       <path id="Helvetica-68" d="M 413 4606
L 975 4606
L 975 2894
Q 1175 3147 1334 3250
Q 1606 3428 2013 3428
Q 2741 3428 3000 2919
Q 3141 2641 3141 2147
L 3141 0
L 2563 0
L 2563 2109
Q 2563 2478 2469 2650
Q 2316 2925 1894 2925
Q 1544 2925 1259 2684
Q 975 2444 975 1775
L 975 0
L 413 0
L 413 4606
z
" transform="scale(0.015625)"/>
       <path id="Helvetica-6c" d="M 428 4591
L 991 4591
L 991 0
L 428 0
L 428 4591
z
" transform="scale(0.015625)"/>
       <path id="Helvetica-79" d="M 2503 3347
L 3125 3347
Q 3006 3025 2597 1878
Q 2291 1016 2084 472
Q 1597 -809 1397 -1090
Q 1197 -1372 709 -1372
Q 591 -1372 527 -1362
Q 463 -1353 369 -1328
L 369 -816
Q 516 -856 581 -865
Q 647 -875 697 -875
Q 853 -875 926 -823
Q 1000 -772 1050 -697
Q 1066 -672 1162 -440
Q 1259 -209 1303 -97
L 66 3347
L 703 3347
L 1600 622
L 2503 3347
z
M 1597 3428
L 1597 3428
z
" transform="scale(0.015625)"/>
       <path id="Helvetica-20" transform="scale(0.015625)"/>
       <path id="Helvetica-53" d="M 894 1481
Q 916 1091 1078 847
Q 1388 391 2169 391
Q 2519 391 2806 491
Q 3363 684 3363 1184
Q 3363 1559 3128 1719
Q 2891 1875 2384 1991
L 1763 2131
Q 1153 2269 900 2434
Q 463 2722 463 3294
Q 463 3913 891 4309
Q 1319 4706 2103 4706
Q 2825 4706 3329 4357
Q 3834 4009 3834 3244
L 3250 3244
Q 3203 3613 3050 3809
Q 2766 4169 2084 4169
Q 1534 4169 1293 3937
Q 1053 3706 1053 3400
Q 1053 3063 1334 2906
Q 1519 2806 2169 2656
L 2813 2509
Q 3278 2403 3531 2219
Q 3969 1897 3969 1284
Q 3969 522 3414 194
Q 2859 -134 2125 -134
Q 1269 -134 784 303
Q 300 738 309 1481
L 894 1481
z
M 2150 4716
L 2150 4716
z
" transform="scale(0.015625)"/>
       <path id="Helvetica-75" d="M 975 3347
L 975 1125
Q 975 869 1056 706
Q 1206 406 1616 406
Q 2203 406 2416 931
Q 2531 1213 2531 1703
L 2531 3347
L 3094 3347
L 3094 0
L 2563 0
L 2569 494
Q 2459 303 2297 172
Q 1975 -91 1516 -91
Q 800 -91 541 388
Q 400 644 400 1072
L 400 3347
L 975 3347
z
M 1747 3428
L 1747 3428
z
" transform="scale(0.015625)"/>
       <path id="Helvetica-62" d="M 369 4606
L 916 4606
L 916 2941
Q 1100 3181 1356 3307
Q 1613 3434 1913 3434
Q 2538 3434 2927 3004
Q 3316 2575 3316 1738
Q 3316 944 2931 419
Q 2547 -106 1866 -106
Q 1484 -106 1222 78
Q 1066 188 888 428
L 888 0
L 369 0
L 369 4606
z
M 1831 391
Q 2288 391 2514 753
Q 2741 1116 2741 1709
Q 2741 2238 2514 2584
Q 2288 2931 1847 2931
Q 1463 2931 1173 2647
Q 884 2363 884 1709
Q 884 1238 1003 944
Q 1225 391 1831 391
z
" transform="scale(0.015625)"/>
       <path id="Helvetica-6d" d="M 413 3347
L 969 3347
L 969 2872
Q 1169 3119 1331 3231
Q 1609 3422 1963 3422
Q 2363 3422 2606 3225
Q 2744 3113 2856 2894
Q 3044 3163 3297 3292
Q 3550 3422 3866 3422
Q 4541 3422 4784 2934
Q 4916 2672 4916 2228
L 4916 0
L 4331 0
L 4331 2325
Q 4331 2659 4164 2784
Q 3997 2909 3756 2909
Q 3425 2909 3186 2687
Q 2947 2466 2947 1947
L 2947 0
L 2375 0
L 2375 2184
Q 2375 2525 2294 2681
Q 2166 2916 1816 2916
Q 1497 2916 1236 2669
Q 975 2422 975 1775
L 975 0
L 413 0
L 413 3347
z
" transform="scale(0.015625)"/>
       <path id="Helvetica-69" d="M 413 3331
L 984 3331
L 984 0
L 413 0
L 413 3331
z
M 413 4591
L 984 4591
L 984 3953
L 413 3953
L 413 4591
z
" transform="scale(0.015625)"/>
       <path id="Helvetica-73" d="M 747 1050
Q 772 769 888 619
Q 1100 347 1625 347
Q 1938 347 2175 483
Q 2413 619 2413 903
Q 2413 1119 2222 1231
Q 2100 1300 1741 1391
L 1294 1503
Q 866 1609 663 1741
Q 300 1969 300 2372
Q 300 2847 642 3140
Q 984 3434 1563 3434
Q 2319 3434 2653 2991
Q 2863 2709 2856 2384
L 2325 2384
Q 2309 2575 2191 2731
Q 1997 2953 1519 2953
Q 1200 2953 1036 2831
Q 872 2709 872 2509
Q 872 2291 1088 2159
Q 1213 2081 1456 2022
L 1828 1931
Q 2434 1784 2641 1647
Q 2969 1431 2969 969
Q 2969 522 2630 197
Q 2291 -128 1597 -128
Q 850 -128 539 211
Q 228 550 206 1050
L 747 1050
z
M 1578 3428
L 1578 3428
z
" transform="scale(0.015625)"/>
      </defs>
      <use xlink:href="#Helvetica-4d"/>
      <use xlink:href="#Helvetica-6f" transform="translate(83.300781 0)"/>
      <use xlink:href="#Helvetica-6e" transform="translate(138.916016 0)"/>
      <use xlink:href="#Helvetica-74" transform="translate(194.53125 0)"/>
      <use xlink:href="#Helvetica-68" transform="translate(222.314453 0)"/>
      <use xlink:href="#Helvetica-6c" transform="translate(277.929688 0)"/>
      <use xlink:href="#Helvetica-79" transform="translate(300.146484 0)"/>
      <use xlink:href="#Helvetica-20" transform="translate(350.146484 0)"/>
      <use xlink:href="#Helvetica-53" transform="translate(377.929688 0)"/>
      <use xlink:href="#Helvetica-75" transform="translate(444.628906 0)"/>
      <use xlink:href="#Helvetica-62" transform="translate(500.244141 0)"/>
      <use xlink:href="#Helvetica-6d" transform="translate(555.859375 0)"/>
      <use xlink:href="#Helvetica-69" transform="translate(639.160156 0)"/>
      <use xlink:href="#Helvetica-73" transform="translate(661.376953 0)"/>
      <use xlink:href="#Helvetica-73" transform="translate(711.376953 0)"/>
      <use xlink:href="#Helvetica-69" transform="translate(761.376953 0)"/>
      <use xlink:href="#Helvetica-6f" transform="translate(783.59375 0)"/>
      <use xlink:href="#Helvetica-6e" transform="translate(839.208984 0)"/>
      <use xlink:href="#Helvetica-73" transform="translate(894.824219 0)"/>
     </g>
    </g>
   </g>
   <g id="FillBetweenPolyCollection_1">
    <defs>
     <path id="m3d1150d2c4" d="M 47.171847 -31.764063
L 47.171847 -31.781137
L 47.622292 -32.003108
L 48.072737 -32.259228
L 48.508651 -32.412899
L 48.959096 -32.310452
L 49.395011 -32.429974
L 49.845456 -33.411767
L 50.295901 -32.908065
L 50.717285 -32.788542
L 51.16773 -33.684961
L 51.603645 -33.787409
L 52.05409 -33.787409
L 52.490004 -34.291112
L 52.940449 -33.702036
L 53.390894 -34.632605
L 53.826809 -35.187531
L 54.277254 -35.631472
L 54.713168 -35.213143
L 55.163613 -35.178994
L 55.614059 -35.418039
L 56.020912 -36.066876
L 56.471357 -36.075414
L 56.907272 -36.357145
L 57.357717 -36.340071
L 57.793631 -37.253565
L 58.244076 -36.382757
L 58.694521 -36.186399
L 59.130436 -37.552371
L 59.580881 -37.859715
L 60.016796 -38.064611
L 60.467241 -36.971833
L 60.917686 -37.338938
L 61.324539 -38.192671
L 61.774984 -38.064611
L 62.210899 -38.943956
L 62.661344 -39.345211
L 63.097258 -39.131777
L 63.547703 -38.303656
L 63.998149 -39.311061
L 64.434063 -39.720853
L 64.884508 -41.274647
L 65.320423 -40.770944
L 65.770868 -39.72939
L 66.221313 -40.105033
L 66.628166 -41.735663
L 67.078611 -39.558644
L 67.514526 -41.240498
L 67.964971 -41.96617
L 68.400886 -40.446526
L 68.851331 -40.557511
L 69.301776 -41.436856
L 69.73769 -42.25644
L 70.188135 -41.684439
L 70.62405 -41.556379
L 71.074495 -40.736795
L 71.52494 -40.950228
L 71.946324 -41.7442
L 72.396769 -42.179604
L 72.832684 -43.357755
L 73.283129 -42.956501
L 73.719043 -43.921219
L 74.169488 -43.665099
L 74.619933 -44.348085
L 75.055848 -44.740802
L 75.506293 -43.733398
L 75.942207 -44.288324
L 76.392652 -42.930889
L 76.843097 -43.391904
L 77.249951 -43.810233
L 77.700396 -44.296861
L 78.136311 -45.261579
L 78.586756 -46.354357
L 79.02267 -47.165404
L 79.473115 -43.938293
L 79.92356 -47.831315
L 80.359475 -48.898481
L 80.80992 -46.422656
L 81.245835 -48.403316
L 81.69628 -46.47388
L 82.146725 -46.004327
L 82.553578 -48.078898
L 83.004023 -46.678776
L 83.439938 -48.138659
L 83.890383 -49.598542
L 84.326297 -49.70099
L 84.776742 -47.353225
L 85.227187 -52.373174
L 85.663102 -51.656039
L 86.113547 -50.904754
L 86.549462 -50.571798
L 86.999907 -47.558121
L 87.450352 -48.147197
L 87.857205 -52.202428
L 88.30765 -50.170543
L 88.743565 -50.72547
L 89.19401 -52.48416
L 89.629925 -52.373174
L 90.08037 -50.025409
L 90.530815 -53.124459
L 90.966729 -53.713535
L 91.417174 -53.261056
L 91.853089 -53.901356
L 92.303534 -51.954845
L 92.753979 -51.963383
L 93.175363 -53.961117
L 93.625808 -49.496094
L 94.061723 -55.045358
L 94.512168 -52.586608
L 94.948082 -52.774429
L 95.398527 -54.072103
L 95.848972 -53.295206
L 96.284887 -56.633301
L 96.735332 -56.214972
L 97.171246 -54.422133
L 97.621691 -53.884282
L 98.072136 -52.501234
L 98.47899 -54.925836
L 98.929435 -54.012341
L 99.36535 -56.624764
L 99.815795 -56.274734
L 100.251709 -55.32709
L 100.702154 -52.441473
L 101.152599 -53.517176
L 101.588514 -60.82513
L 102.038959 -59.425008
L 102.474873 -54.968522
L 102.925319 -54.951448
L 103.375764 -53.679386
L 103.782617 -54.524581
L 104.233062 -56.121062
L 104.668977 -58.135871
L 105.119422 -54.772164
L 105.555336 -59.67259
L 106.005781 -55.028284
L 106.456226 -60.05677
L 106.892141 -61.909371
L 107.342586 -61.132474
L 107.778501 -59.561605
L 108.228946 -56.744287
L 108.679391 -56.360107
L 109.086244 -57.529721
L 109.536689 -58.246857
L 109.972604 -59.655516
L 110.423049 -61.328832
L 110.858963 -60.944652
L 111.309409 -55.164881
L 111.759854 -63.753434
L 112.195768 -64.555943
L 112.646213 -60.355577
L 113.082128 -63.019223
L 113.532573 -57.982199
L 113.983018 -59.740889
L 114.404402 -62.524058
L 114.854847 -60.526323
L 115.290761 -62.097192
L 115.741207 -63.437552
L 116.177121 -63.172895
L 116.627566 -59.886024
L 117.078011 -65.392601
L 117.513926 -66.647588
L 117.964371 -67.211052
L 118.400285 -65.862154
L 118.85073 -61.584952
L 119.301175 -59.510381
L 119.708029 -64.897436
L 120.158474 -63.292418
L 120.594389 -64.026628
L 121.044834 -65.776781
L 121.480748 -64.538868
L 121.931193 -63.992479
L 122.381638 -68.858756
L 122.817553 -69.661265
L 123.267998 -68.423353
L 123.703912 -66.621976
L 124.154357 -64.701077
L 124.604803 -61.81546
L 125.011656 -67.731829
L 125.462101 -61.422743
L 125.898016 -67.654993
L 126.348461 -67.100067
L 126.784375 -67.595232
L 127.23482 -66.459767
L 127.685265 -68.261143
L 128.12118 -75.586171
L 128.571625 -73.204257
L 129.00754 -68.440427
L 129.457985 -71.488254
L 129.90843 -67.3135
L 130.315283 -70.122281
L 130.765728 -65.93899
L 131.201643 -71.752911
L 131.652088 -70.045445
L 132.088002 -71.727299
L 132.538447 -69.447832
L 132.988893 -71.735836
L 133.424807 -82.518482
L 133.875252 -74.698289
L 134.311167 -69.379533
L 134.761612 -74.194587
L 135.212057 -69.866161
L 135.633441 -70.344251
L 136.083886 -73.579899
L 136.5198 -73.050585
L 136.970245 -74.27996
L 137.40616 -75.637395
L 137.856605 -67.27935
L 138.30705 -76.90092
L 138.742965 -81.050062
L 139.19341 -72.52127
L 139.629324 -75.441037
L 140.079769 -74.237273
L 140.530214 -73.622586
L 140.937068 -79.120626
L 141.387513 -73.853094
L 141.823428 -74.066527
L 142.273873 -79.692627
L 142.709787 -79.624328
L 143.160232 -71.010163
L 143.610677 -80.392688
L 144.046592 -82.62093
L 144.497037 -80.682957
L 144.932951 -79.035252
L 145.383396 -78.471789
L 145.833841 -74.860498
L 146.240695 -84.1235
L 146.69114 -79.590179
L 147.127055 -80.742718
L 147.5775 -82.672154
L 148.013414 -78.898655
L 148.463859 -77.857101
L 148.914304 -84.968696
L 149.350219 -85.583383
L 149.800664 -88.75927
L 150.236579 -83.372215
L 150.687024 -83.679559
L 151.137469 -81.058599
L 151.544322 -85.429712
L 151.994767 -80.520747
L 152.430682 -86.180996
L 152.881127 -86.035862
L 153.317041 -83.380753
L 153.767486 -85.813891
L 154.217931 -90.987513
L 154.653846 -90.927751
L 155.104291 -94.248772
L 155.540206 -86.676162
L 155.990651 -88.85318
L 156.441096 -88.836106
L 156.86248 -90.697243
L 157.312925 -89.297121
L 157.748839 -92.310799
L 158.199284 -92.558381
L 158.635199 -94.581728
L 159.085644 -88.042134
L 159.536089 -88.366553
L 159.972004 -103.921566
L 160.422449 -94.684176
L 160.858363 -91.303394
L 161.308808 -97.928361
L 161.759253 -94.231698
L 162.166107 -95.589133
L 162.616552 -101.215233
L 163.052466 -95.930626
L 163.502912 -91.047274
L 163.938826 -103.878879
L 164.389271 -90.09963
L 164.839716 -100.020007
L 165.275631 -105.680256
L 165.726076 -97.433196
L 166.16199 -99.021139
L 166.612435 -102.572668
L 167.06288 -94.718325
L 167.469734 -101.377442
L 167.920179 -98.82478
L 168.356094 -99.84926
L 168.806539 -98.98699
L 169.242453 -104.749687
L 169.692898 -92.541306
L 170.143343 -105.833927
L 170.579258 -107.498707
L 171.029703 -100.113917
L 171.465617 -106.636436
L 171.916063 -99.311408
L 172.366508 -100.523709
L 172.773361 -110.230652
L 173.223806 -103.195893
L 173.659721 -101.531114
L 174.110166 -110.452622
L 174.54608 -108.557335
L 174.996525 -99.917559
L 175.44697 -111.314893
L 175.882885 -110.503846
L 176.33333 -112.629641
L 176.769245 -111.810058
L 177.21969 -102.205563
L 177.670135 -109.812323
L 178.091519 -114.968869
L 178.541964 -108.156081
L 178.977878 -115.361586
L 179.428323 -114.098062
L 179.864238 -107.8402
L 180.314683 -108.736619
L 180.765128 -116.018961
L 181.201043 -117.991084
L 181.651488 -120.227864
L 182.087402 -113.713882
L 182.537847 -110.187965
L 182.988292 -107.831662
L 183.395146 -125.742978
L 183.845591 -108.847605
L 184.281505 -127.330921
L 184.73195 -119.672937
L 185.167865 -116.966604
L 185.61831 -115.890901
L 186.068755 -121.55115
L 186.50467 -131.027585
L 186.955115 -130.703166
L 187.391029 -119.971744
L 187.841474 -122.336584
L 188.291919 -122.199987
L 188.698773 -130.455584
L 189.149218 -128.679819
L 189.585133 -139.291719
L 190.035578 -130.523882
L 190.471492 -133.682694
L 190.921937 -124.564827
L 191.372382 -127.134563
L 191.808297 -146.556986
L 192.258742 -142.245635
L 192.694656 -133.981501
L 193.145101 -130.259225
L 193.595547 -128.252953
L 194.0024 -139.795422
L 194.452845 -146.13012
L 194.88876 -149.152334
L 195.339205 -137.200074
L 195.775119 -148.162004
L 196.225564 -133.085081
L 196.676009 -150.270724
L 197.111924 -157.049363
L 197.562369 -145.327611
L 197.998284 -147.163136
L 198.448729 -134.297382
L 198.899174 -142.168799
L 199.320558 -154.829658
L 199.771003 -160.037428
L 200.206917 -157.425006
L 200.657362 -176.898653
L 201.093277 -170.137088
L 201.543722 -149.416991
L 201.994167 -158.347037
L 202.430082 -171.929927
L 202.880527 -160.933848
L 203.316441 -167.200247
L 203.766886 -140.589393
L 204.217331 -148.349825
L 204.624185 -179.229343
L 205.07463 -161.027758
L 205.510544 -161.574147
L 205.960989 -170.478581
L 206.396904 -158.142141
L 206.847349 -151.33789
L 207.297794 -162.573015
L 207.733709 -168.019831
L 208.184154 -165.569617
L 208.620068 -164.912243
L 209.070513 -146.60821
L 209.520958 -151.611085
L 209.927812 -179.254955
L 210.378257 -153.625894
L 210.814172 -168.429622
L 211.264617 -163.904838
L 211.700531 -158.236052
L 212.150976 -159.849607
L 212.601421 -165.287885
L 213.037336 -181.602721
L 213.487781 -179.212269
L 213.923695 -158.859277
L 214.37414 -150.176813
L 214.824585 -158.654381
L 215.231439 -187.561776
L 215.681884 -159.909368
L 216.117799 -203.296073
L 216.568244 -184.138307
L 217.004158 -176.019308
L 217.454603 -176.147368
L 217.905048 -180.766063
L 218.340963 -208.572143
L 218.791408 -192.615875
L 219.227322 -183.284575
L 219.677768 -186.161654
L 220.128213 -198.079765
L 220.549597 -205.345032
L 221.000042 -200.470218
L 221.435956 -211.696805
L 221.886401 -203.355835
L 222.322316 -217.826607
L 222.772761 -180.748988
L 223.223206 -207.368379
L 223.65912 -238.589391
L 224.109566 -202.09231
L 224.54548 -212.806658
L 224.995925 -197.448003
L 225.44637 -213.788451
L 225.853224 -239.99805
L 226.303669 -218.364459
L 226.739583 -244.155729
L 227.190028 -117.120276
L 227.190028 -31.764063
L 227.190028 -31.764063
L 226.739583 -31.764063
L 226.303669 -31.764063
L 225.853224 -31.764063
L 225.44637 -31.764063
L 224.995925 -31.764063
L 224.54548 -31.764063
L 224.109566 -31.764063
L 223.65912 -31.764063
L 223.223206 -31.764063
L 222.772761 -31.764063
L 222.322316 -31.764063
L 221.886401 -31.764063
L 221.435956 -31.764063
L 221.000042 -31.764063
L 220.549597 -31.764063
L 220.128213 -31.764063
L 219.677768 -31.764063
L 219.227322 -31.764063
L 218.791408 -31.764063
L 218.340963 -31.764063
L 217.905048 -31.764063
L 217.454603 -31.764063
L 217.004158 -31.764063
L 216.568244 -31.764063
L 216.117799 -31.764063
L 215.681884 -31.764063
L 215.231439 -31.764063
L 214.824585 -31.764063
L 214.37414 -31.764063
L 213.923695 -31.764063
L 213.487781 -31.764063
L 213.037336 -31.764063
L 212.601421 -31.764063
L 212.150976 -31.764063
L 211.700531 -31.764063
L 211.264617 -31.764063
L 210.814172 -31.764063
L 210.378257 -31.764063
L 209.927812 -31.764063
L 209.520958 -31.764063
L 209.070513 -31.764063
L 208.620068 -31.764063
L 208.184154 -31.764063
L 207.733709 -31.764063
L 207.297794 -31.764063
L 206.847349 -31.764063
L 206.396904 -31.764063
L 205.960989 -31.764063
L 205.510544 -31.764063
L 205.07463 -31.764063
L 204.624185 -31.764063
L 204.217331 -31.764063
L 203.766886 -31.764063
L 203.316441 -31.764063
L 202.880527 -31.764063
L 202.430082 -31.764063
L 201.994167 -31.764063
L 201.543722 -31.764063
L 201.093277 -31.764063
L 200.657362 -31.764063
L 200.206917 -31.764063
L 199.771003 -31.764063
L 199.320558 -31.764063
L 198.899174 -31.764063
L 198.448729 -31.764063
L 197.998284 -31.764063
L 197.562369 -31.764063
L 197.111924 -31.764063
L 196.676009 -31.764063
L 196.225564 -31.764063
L 195.775119 -31.764063
L 195.339205 -31.764063
L 194.88876 -31.764063
L 194.452845 -31.764063
L 194.0024 -31.764063
L 193.595547 -31.764063
L 193.145101 -31.764063
L 192.694656 -31.764063
L 192.258742 -31.764063
L 191.808297 -31.764063
L 191.372382 -31.764063
L 190.921937 -31.764063
L 190.471492 -31.764063
L 190.035578 -31.764063
L 189.585133 -31.764063
L 189.149218 -31.764063
L 188.698773 -31.764063
L 188.291919 -31.764063
L 187.841474 -31.764063
L 187.391029 -31.764063
L 186.955115 -31.764063
L 186.50467 -31.764063
L 186.068755 -31.764063
L 185.61831 -31.764063
L 185.167865 -31.764063
L 184.73195 -31.764063
L 184.281505 -31.764063
L 183.845591 -31.764063
L 183.395146 -31.764063
L 182.988292 -31.764063
L 182.537847 -31.764063
L 182.087402 -31.764063
L 181.651488 -31.764063
L 181.201043 -31.764063
L 180.765128 -31.764063
L 180.314683 -31.764063
L 179.864238 -31.764063
L 179.428323 -31.764063
L 178.977878 -31.764063
L 178.541964 -31.764063
L 178.091519 -31.764063
L 177.670135 -31.764063
L 177.21969 -31.764063
L 176.769245 -31.764063
L 176.33333 -31.764063
L 175.882885 -31.764063
L 175.44697 -31.764063
L 174.996525 -31.764063
L 174.54608 -31.764063
L 174.110166 -31.764063
L 173.659721 -31.764063
L 173.223806 -31.764063
L 172.773361 -31.764063
L 172.366508 -31.764063
L 171.916063 -31.764063
L 171.465617 -31.764063
L 171.029703 -31.764063
L 170.579258 -31.764063
L 170.143343 -31.764063
L 169.692898 -31.764063
L 169.242453 -31.764063
L 168.806539 -31.764063
L 168.356094 -31.764063
L 167.920179 -31.764063
L 167.469734 -31.764063
L 167.06288 -31.764063
L 166.612435 -31.764063
L 166.16199 -31.764063
L 165.726076 -31.764063
L 165.275631 -31.764063
L 164.839716 -31.764063
L 164.389271 -31.764063
L 163.938826 -31.764063
L 163.502912 -31.764063
L 163.052466 -31.764063
L 162.616552 -31.764063
L 162.166107 -31.764063
L 161.759253 -31.764063
L 161.308808 -31.764063
L 160.858363 -31.764063
L 160.422449 -31.764063
L 159.972004 -31.764063
L 159.536089 -31.764063
L 159.085644 -31.764063
L 158.635199 -31.764063
L 158.199284 -31.764063
L 157.748839 -31.764063
L 157.312925 -31.764063
L 156.86248 -31.764063
L 156.441096 -31.764063
L 155.990651 -31.764063
L 155.540206 -31.764063
L 155.104291 -31.764063
L 154.653846 -31.764063
L 154.217931 -31.764063
L 153.767486 -31.764063
L 153.317041 -31.764063
L 152.881127 -31.764063
L 152.430682 -31.764063
L 151.994767 -31.764063
L 151.544322 -31.764063
L 151.137469 -31.764063
L 150.687024 -31.764063
L 150.236579 -31.764063
L 149.800664 -31.764063
L 149.350219 -31.764063
L 148.914304 -31.764063
L 148.463859 -31.764063
L 148.013414 -31.764063
L 147.5775 -31.764063
L 147.127055 -31.764063
L 146.69114 -31.764063
L 146.240695 -31.764063
L 145.833841 -31.764063
L 145.383396 -31.764063
L 144.932951 -31.764063
L 144.497037 -31.764063
L 144.046592 -31.764063
L 143.610677 -31.764063
L 143.160232 -31.764063
L 142.709787 -31.764063
L 142.273873 -31.764063
L 141.823428 -31.764063
L 141.387513 -31.764063
L 140.937068 -31.764063
L 140.530214 -31.764063
L 140.079769 -31.764063
L 139.629324 -31.764063
L 139.19341 -31.764063
L 138.742965 -31.764063
L 138.30705 -31.764063
L 137.856605 -31.764063
L 137.40616 -31.764063
L 136.970245 -31.764063
L 136.5198 -31.764063
L 136.083886 -31.764063
L 135.633441 -31.764063
L 135.212057 -31.764063
L 134.761612 -31.764063
L 134.311167 -31.764063
L 133.875252 -31.764063
L 133.424807 -31.764063
L 132.988893 -31.764063
L 132.538447 -31.764063
L 132.088002 -31.764063
L 131.652088 -31.764063
L 131.201643 -31.764063
L 130.765728 -31.764063
L 130.315283 -31.764063
L 129.90843 -31.764063
L 129.457985 -31.764063
L 129.00754 -31.764063
L 128.571625 -31.764063
L 128.12118 -31.764063
L 127.685265 -31.764063
L 127.23482 -31.764063
L 126.784375 -31.764063
L 126.348461 -31.764063
L 125.898016 -31.764063
L 125.462101 -31.764063
L 125.011656 -31.764063
L 124.604803 -31.764063
L 124.154357 -31.764063
L 123.703912 -31.764063
L 123.267998 -31.764063
L 122.817553 -31.764063
L 122.381638 -31.764063
L 121.931193 -31.764063
L 121.480748 -31.764063
L 121.044834 -31.764063
L 120.594389 -31.764063
L 120.158474 -31.764063
L 119.708029 -31.764063
L 119.301175 -31.764063
L 118.85073 -31.764063
L 118.400285 -31.764063
L 117.964371 -31.764063
L 117.513926 -31.764063
L 117.078011 -31.764063
L 116.627566 -31.764063
L 116.177121 -31.764063
L 115.741207 -31.764063
L 115.290761 -31.764063
L 114.854847 -31.764063
L 114.404402 -31.764063
L 113.983018 -31.764063
L 113.532573 -31.764063
L 113.082128 -31.764063
L 112.646213 -31.764063
L 112.195768 -31.764063
L 111.759854 -31.764063
L 111.309409 -31.764063
L 110.858963 -31.764063
L 110.423049 -31.764063
L 109.972604 -31.764063
L 109.536689 -31.764063
L 109.086244 -31.764063
L 108.679391 -31.764063
L 108.228946 -31.764063
L 107.778501 -31.764063
L 107.342586 -31.764063
L 106.892141 -31.764063
L 106.456226 -31.764063
L 106.005781 -31.764063
L 105.555336 -31.764063
L 105.119422 -31.764063
L 104.668977 -31.764063
L 104.233062 -31.764063
L 103.782617 -31.764063
L 103.375764 -31.764063
L 102.925319 -31.764063
L 102.474873 -31.764063
L 102.038959 -31.764063
L 101.588514 -31.764063
L 101.152599 -31.764063
L 100.702154 -31.764063
L 100.251709 -31.764063
L 99.815795 -31.764063
L 99.36535 -31.764063
L 98.929435 -31.764063
L 98.47899 -31.764063
L 98.072136 -31.764063
L 97.621691 -31.764063
L 97.171246 -31.764063
L 96.735332 -31.764063
L 96.284887 -31.764063
L 95.848972 -31.764063
L 95.398527 -31.764063
L 94.948082 -31.764063
L 94.512168 -31.764063
L 94.061723 -31.764063
L 93.625808 -31.764063
L 93.175363 -31.764063
L 92.753979 -31.764063
L 92.303534 -31.764063
L 91.853089 -31.764063
L 91.417174 -31.764063
L 90.966729 -31.764063
L 90.530815 -31.764063
L 90.08037 -31.764063
L 89.629925 -31.764063
L 89.19401 -31.764063
L 88.743565 -31.764063
L 88.30765 -31.764063
L 87.857205 -31.764063
L 87.450352 -31.764063
L 86.999907 -31.764063
L 86.549462 -31.764063
L 86.113547 -31.764063
L 85.663102 -31.764063
L 85.227187 -31.764063
L 84.776742 -31.764063
L 84.326297 -31.764063
L 83.890383 -31.764063
L 83.439938 -31.764063
L 83.004023 -31.764063
L 82.553578 -31.764063
L 82.146725 -31.764063
L 81.69628 -31.764063
L 81.245835 -31.764063
L 80.80992 -31.764063
L 80.359475 -31.764063
L 79.92356 -31.764063
L 79.473115 -31.764063
L 79.02267 -31.764063
L 78.586756 -31.764063
L 78.136311 -31.764063
L 77.700396 -31.764063
L 77.249951 -31.764063
L 76.843097 -31.764063
L 76.392652 -31.764063
L 75.942207 -31.764063
L 75.506293 -31.764063
L 75.055848 -31.764063
L 74.619933 -31.764063
L 74.169488 -31.764063
L 73.719043 -31.764063
L 73.283129 -31.764063
L 72.832684 -31.764063
L 72.396769 -31.764063
L 71.946324 -31.764063
L 71.52494 -31.764063
L 71.074495 -31.764063
L 70.62405 -31.764063
L 70.188135 -31.764063
L 69.73769 -31.764063
L 69.301776 -31.764063
L 68.851331 -31.764063
L 68.400886 -31.764063
L 67.964971 -31.764063
L 67.514526 -31.764063
L 67.078611 -31.764063
L 66.628166 -31.764063
L 66.221313 -31.764063
L 65.770868 -31.764063
L 65.320423 -31.764063
L 64.884508 -31.764063
L 64.434063 -31.764063
L 63.998149 -31.764063
L 63.547703 -31.764063
L 63.097258 -31.764063
L 62.661344 -31.764063
L 62.210899 -31.764063
L 61.774984 -31.764063
L 61.324539 -31.764063
L 60.917686 -31.764063
L 60.467241 -31.764063
L 60.016796 -31.764063
L 59.580881 -31.764063
L 59.130436 -31.764063
L 58.694521 -31.764063
L 58.244076 -31.764063
L 57.793631 -31.764063
L 57.357717 -31.764063
L 56.907272 -31.764063
L 56.471357 -31.764063
L 56.020912 -31.764063
L 55.614059 -31.764063
L 55.163613 -31.764063
L 54.713168 -31.764063
L 54.277254 -31.764063
L 53.826809 -31.764063
L 53.390894 -31.764063
L 52.940449 -31.764063
L 52.490004 -31.764063
L 52.05409 -31.764063
L 51.603645 -31.764063
L 51.16773 -31.764063
L 50.717285 -31.764063
L 50.295901 -31.764063
L 49.845456 -31.764063
L 49.395011 -31.764063
L 48.959096 -31.764063
L 48.508651 -31.764063
L 48.072737 -31.764063
L 47.622292 -31.764063
L 47.171847 -31.764063
z
" style="stroke: #aec7e8; stroke-opacity: 0.3"/>
    </defs>
    <g clip-path="url(#pbd712879ea)">
     <use xlink:href="#m3d1150d2c4" x="0" y="275.744062" style="fill: #aec7e8; fill-opacity: 0.3; stroke: #aec7e8; stroke-opacity: 0.3"/>
    </g>
   </g>
   <g id="patch_3">
    <path d="M 38.170938 243.98
L 38.170938 20.96875
" style="fill: none; stroke: #333333; stroke-width: 0.8; stroke-linejoin: miter; stroke-linecap: square"/>
   </g>
   <g id="patch_4">
    <path d="M 38.170938 243.98
L 236.190937 243.98
" style="fill: none; stroke: #333333; stroke-width: 0.8; stroke-linejoin: miter; stroke-linecap: square"/>
   </g>
   <g id="line2d_25">
    <path d="M 47.171847 243.962925
L 48.508651 243.331163
L 48.959096 243.433611
L 49.395011 243.314088
L 49.845456 242.332296
L 50.295901 242.835998
L 50.717285 242.955521
L 51.16773 242.059101
L 52.05409 241.956653
L 52.490004 241.452951
L 52.940449 242.042026
L 53.390894 241.111458
L 54.277254 240.11259
L 54.713168 240.530919
L 55.163613 240.565068
L 55.614059 240.326023
L 56.020912 239.677186
L 56.471357 239.668649
L 56.907272 239.386917
L 57.357717 239.403992
L 57.793631 238.490498
L 58.244076 239.361305
L 58.694521 239.557664
L 59.130436 238.191691
L 60.016796 237.679451
L 60.467241 238.772229
L 60.917686 238.405124
L 61.324539 237.551391
L 61.774984 237.679451
L 62.210899 236.800106
L 62.661344 236.398852
L 63.097258 236.612285
L 63.547703 237.440406
L 63.998149 236.433001
L 64.434063 236.02321
L 64.884508 234.469416
L 65.320423 234.973118
L 65.770868 236.014672
L 66.221313 235.63903
L 66.628166 234.0084
L 67.078611 236.185419
L 67.514526 234.503565
L 67.964971 233.777892
L 68.400886 235.297537
L 68.851331 235.186551
L 69.73769 233.487623
L 70.188135 234.059624
L 70.62405 234.187684
L 71.074495 235.007267
L 71.52494 234.793834
L 71.946324 233.999863
L 72.396769 233.564459
L 72.832684 232.386307
L 73.283129 232.787562
L 73.719043 231.822844
L 74.169488 232.078964
L 74.619933 231.395977
L 75.055848 231.00326
L 75.506293 232.010665
L 75.942207 231.455739
L 76.392652 232.813174
L 77.700396 231.447201
L 79.02267 228.578659
L 79.473115 231.805769
L 79.92356 227.912747
L 80.359475 226.845581
L 80.80992 229.321406
L 81.245835 227.340746
L 81.69628 229.270182
L 82.146725 229.739736
L 82.553578 227.665165
L 83.004023 229.065287
L 83.890383 226.14552
L 84.326297 226.043072
L 84.776742 228.390838
L 85.227187 223.370888
L 86.113547 224.839309
L 86.549462 225.172265
L 86.999907 228.185942
L 87.450352 227.596866
L 87.857205 223.541635
L 88.30765 225.573519
L 88.743565 225.018593
L 89.19401 223.259903
L 89.629925 223.370888
L 90.08037 225.718654
L 90.530815 222.619603
L 90.966729 222.030528
L 91.417174 222.483006
L 91.853089 221.842706
L 92.303534 223.789217
L 92.753979 223.78068
L 93.175363 221.782945
L 93.625808 226.247968
L 94.061723 220.698704
L 94.512168 223.157455
L 94.948082 222.969634
L 95.398527 221.67196
L 95.848972 222.448857
L 96.284887 219.110761
L 96.735332 219.52909
L 97.171246 221.321929
L 97.621691 221.859781
L 98.072136 223.242828
L 98.47899 220.818227
L 98.929435 221.731721
L 99.36535 219.119298
L 99.815795 219.469329
L 100.251709 220.416972
L 100.702154 223.30259
L 101.152599 222.226886
L 101.588514 214.918933
L 102.038959 216.319055
L 102.474873 220.77554
L 102.925319 220.792615
L 103.375764 222.064677
L 103.782617 221.219481
L 104.233062 219.623001
L 104.668977 217.608191
L 105.119422 220.971899
L 105.555336 216.071472
L 106.005781 220.715779
L 106.456226 215.687292
L 106.892141 213.834692
L 107.342586 214.611589
L 107.778501 216.182457
L 108.228946 218.999776
L 108.679391 219.383956
L 109.086244 218.214342
L 109.536689 217.497206
L 110.423049 214.41523
L 110.858963 214.79941
L 111.309409 220.579182
L 111.759854 211.990629
L 112.195768 211.18812
L 112.646213 215.388486
L 113.082128 212.724839
L 113.532573 217.761863
L 113.983018 216.003173
L 114.404402 213.220004
L 114.854847 215.217739
L 115.741207 212.30651
L 116.177121 212.571167
L 116.627566 215.858039
L 117.078011 210.351462
L 117.513926 209.096474
L 117.964371 208.533011
L 118.400285 209.881909
L 118.85073 214.15911
L 119.301175 216.233681
L 119.708029 210.846627
L 120.158474 212.451645
L 120.594389 211.717434
L 121.044834 209.967282
L 121.480748 211.205195
L 121.931193 211.751584
L 122.381638 206.885306
L 122.817553 206.082797
L 123.267998 207.32071
L 124.154357 211.042985
L 124.604803 213.928603
L 125.011656 208.012234
L 125.462101 214.32132
L 125.898016 208.08907
L 126.348461 208.643996
L 126.784375 208.148831
L 127.23482 209.284296
L 127.685265 207.482919
L 128.12118 200.157891
L 128.571625 202.539806
L 129.00754 207.303635
L 129.457985 204.255809
L 129.90843 208.430563
L 130.315283 205.621782
L 130.765728 209.805073
L 131.201643 203.991152
L 131.652088 205.698618
L 132.088002 204.016764
L 132.538447 206.296231
L 132.988893 204.008226
L 133.424807 193.22558
L 133.875252 201.045773
L 134.311167 206.364529
L 134.761612 201.549476
L 135.212057 205.877901
L 135.633441 205.399811
L 136.083886 202.164163
L 136.5198 202.693478
L 137.40616 200.106667
L 137.856605 208.464712
L 138.30705 198.843142
L 138.742965 194.694001
L 139.19341 203.222792
L 139.629324 200.303026
L 140.079769 201.506789
L 140.530214 202.121477
L 140.937068 196.623437
L 141.387513 201.890969
L 141.823428 201.677536
L 142.273873 196.051436
L 142.709787 196.119735
L 143.160232 204.733899
L 143.610677 195.351375
L 144.046592 193.123132
L 144.932951 196.70881
L 145.383396 197.272274
L 145.833841 200.883564
L 146.240695 191.620562
L 146.69114 196.153884
L 147.127055 195.001344
L 147.5775 193.071908
L 148.013414 196.845408
L 148.463859 197.886962
L 148.914304 190.775367
L 149.350219 190.160679
L 149.800664 186.984793
L 150.236579 192.371847
L 150.687024 192.064503
L 151.137469 194.685463
L 151.544322 190.314351
L 151.994767 195.223315
L 152.430682 189.563066
L 152.881127 189.708201
L 153.317041 192.36331
L 153.767486 189.930171
L 154.217931 184.75655
L 154.653846 184.816311
L 155.104291 181.49529
L 155.540206 189.067901
L 155.990651 186.890882
L 156.441096 186.907957
L 156.86248 185.046819
L 157.312925 186.446941
L 157.748839 183.433264
L 158.199284 183.185681
L 158.635199 181.162334
L 159.085644 187.701928
L 159.536089 187.37751
L 159.972004 171.822497
L 160.422449 181.059887
L 160.858363 184.440669
L 161.308808 177.815702
L 161.759253 181.512365
L 162.166107 180.15493
L 162.616552 174.52883
L 163.502912 184.696789
L 163.938826 171.865183
L 164.389271 185.644432
L 164.839716 175.724056
L 165.275631 170.063807
L 165.726076 178.310867
L 166.16199 176.722923
L 166.612435 173.171395
L 167.06288 181.025737
L 167.469734 174.366621
L 167.920179 176.919282
L 168.356094 175.894803
L 168.806539 176.757073
L 169.242453 170.994376
L 169.692898 183.202756
L 170.143343 169.910135
L 170.579258 168.245356
L 171.029703 175.630145
L 171.465617 169.107626
L 171.916063 176.432654
L 172.366508 175.220354
L 172.773361 165.513411
L 173.223806 172.54817
L 173.659721 174.212949
L 174.110166 165.29144
L 174.54608 167.186727
L 174.996525 175.826504
L 175.44697 164.42917
L 175.882885 165.240216
L 176.33333 163.114421
L 176.769245 163.934005
L 177.21969 173.5385
L 177.670135 165.93174
L 178.091519 160.775193
L 178.541964 167.587982
L 178.977878 160.382476
L 179.428323 161.646001
L 179.864238 167.903863
L 180.314683 167.007443
L 180.765128 159.725102
L 181.651488 155.516199
L 182.087402 162.030181
L 182.537847 165.556097
L 182.988292 167.9124
L 183.395146 150.001084
L 183.845591 166.896458
L 184.281505 148.413141
L 184.73195 156.071125
L 185.167865 158.777458
L 185.61831 159.853162
L 186.068755 154.192913
L 186.50467 144.716478
L 186.955115 145.040896
L 187.391029 155.772319
L 187.841474 153.407478
L 188.291919 153.544076
L 188.698773 145.288479
L 189.149218 147.064243
L 189.585133 136.452343
L 190.035578 145.22018
L 190.471492 142.061368
L 190.921937 151.179236
L 191.372382 148.6095
L 191.808297 129.187077
L 192.258742 133.498428
L 192.694656 141.762562
L 193.145101 145.484837
L 193.595547 147.49111
L 194.0024 135.948641
L 194.452845 129.613943
L 194.88876 126.591729
L 195.339205 138.543989
L 195.775119 127.582059
L 196.225564 142.658981
L 196.676009 125.473338
L 197.111924 118.694699
L 197.562369 130.416452
L 197.998284 128.580926
L 198.448729 141.446681
L 198.899174 133.575264
L 199.320558 120.914405
L 199.771003 115.706634
L 200.206917 118.319057
L 200.657362 98.84541
L 201.093277 105.606974
L 201.543722 126.327071
L 201.994167 117.397025
L 202.430082 103.814135
L 202.880527 114.810215
L 203.316441 108.543815
L 203.766886 135.154669
L 204.217331 127.394237
L 204.624185 96.514719
L 205.07463 114.716304
L 205.510544 114.169915
L 205.960989 105.265481
L 206.396904 117.601921
L 206.847349 124.406172
L 207.297794 113.171048
L 207.733709 107.724232
L 208.184154 110.174445
L 208.620068 110.83182
L 209.070513 129.135853
L 209.520958 124.132978
L 209.927812 96.489107
L 210.378257 122.118168
L 210.814172 107.31444
L 211.264617 111.839224
L 211.700531 117.508011
L 212.150976 115.894456
L 212.601421 110.456177
L 213.037336 94.141342
L 213.487781 96.531794
L 213.923695 116.884786
L 214.37414 125.567249
L 214.824585 117.089682
L 215.231439 88.182286
L 215.681884 115.834694
L 216.117799 72.447989
L 216.568244 91.605755
L 217.004158 99.724755
L 217.454603 99.596695
L 217.905048 94.978
L 218.340963 67.17192
L 218.791408 83.128187
L 219.227322 92.459488
L 219.677768 89.582408
L 220.128213 77.664297
L 220.549597 70.39903
L 221.000042 75.273845
L 221.435956 64.047258
L 221.886401 72.388228
L 222.322316 57.917455
L 222.772761 94.995075
L 223.65912 37.154672
L 224.109566 73.651752
L 224.54548 62.937405
L 224.995925 78.296059
L 225.44637 61.955612
L 225.853224 35.746012
L 226.303669 57.379604
L 226.739583 31.588333
L 227.190028 158.623786
L 227.190028 158.623786
" clip-path="url(#pbd712879ea)" style="fill: none; stroke: #1f77b4; stroke-opacity: 0.9; stroke-width: 1.5; stroke-linecap: square"/>
   </g>
   <g id="text_13">
    <g id="patch_5">
     <path d="M 201.101319 48.246219
L 232.230537 48.246219
Q 234.330537 48.246219 234.330537 46.146219
L 234.330537 32.119312
Q 234.330537 30.019312 232.230537 30.019312
L 201.101319 30.019312
Q 199.001319 30.019312 199.001319 32.119312
L 199.001319 46.146219
Q 199.001319 48.246219 201.101319 48.246219
z
" style="fill: #ffffff; opacity: 0.9; stroke: #000000; stroke-linejoin: miter"/>
    </g>
    <!-- Peak: 24k -->
    <g style="fill: #333333" transform="translate(201.101319 37.140719) scale(0.07 -0.07)">
     <defs>
      <path id="Helvetica-50" d="M 547 4591
L 2613 4591
Q 3225 4591 3600 4245
Q 3975 3900 3975 3275
Q 3975 2738 3640 2339
Q 3306 1941 2613 1941
L 1169 1941
L 1169 0
L 547 0
L 547 4591
z
M 3347 3272
Q 3347 3778 2972 3959
Q 2766 4056 2406 4056
L 1169 4056
L 1169 2466
L 2406 2466
Q 2825 2466 3086 2644
Q 3347 2822 3347 3272
z
" transform="scale(0.015625)"/>
      <path id="Helvetica-3a" d="M 709 3303
L 1363 3303
L 1363 2622
L 709 2622
L 709 3303
z
M 709 681
L 1363 681
L 1363 0
L 709 0
L 709 681
z
" transform="scale(0.015625)"/>
      <path id="Helvetica-34" d="M 2116 1584
L 2116 3613
L 681 1584
L 2116 1584
z
M 2125 0
L 2125 1094
L 163 1094
L 163 1644
L 2213 4488
L 2688 4488
L 2688 1584
L 3347 1584
L 3347 1094
L 2688 1094
L 2688 0
L 2125 0
z
" transform="scale(0.015625)"/>
     </defs>
     <use xlink:href="#Helvetica-50"/>
     <use xlink:href="#Helvetica-65" transform="translate(66.699219 0)"/>
     <use xlink:href="#Helvetica-61" transform="translate(122.314453 0)"/>
     <use xlink:href="#Helvetica-6b" transform="translate(177.929688 0)"/>
     <use xlink:href="#Helvetica-3a" transform="translate(227.929688 0)"/>
     <use xlink:href="#Helvetica-20" transform="translate(255.712891 0)"/>
     <use xlink:href="#Helvetica-32" transform="translate(283.496094 0)"/>
     <use xlink:href="#Helvetica-34" transform="translate(339.111328 0)"/>
     <use xlink:href="#Helvetica-6b" transform="translate(394.726562 0)"/>
    </g>
    <!-- (2025) -->
    <g style="fill: #333333" transform="translate(211.99835 44.687156) scale(0.07 -0.07)">
     <defs>
      <path id="Helvetica-28" d="M 1894 4666
Q 1403 3713 1256 3263
Q 1034 2578 1034 1681
Q 1034 775 1288 25
Q 1444 -438 1903 -1306
L 1525 -1306
Q 1069 -594 959 -397
Q 850 -200 722 138
Q 547 600 478 1125
Q 444 1397 444 1644
Q 444 2569 734 3291
Q 919 3750 1503 4666
L 1894 4666
z
" transform="scale(0.015625)"/>
      <path id="Helvetica-29" d="M 222 -1306
Q 719 -338 863 106
Q 1081 778 1081 1681
Q 1081 2584 828 3334
Q 672 3797 213 4666
L 591 4666
Q 1072 3897 1173 3717
Q 1275 3538 1394 3222
Q 1544 2831 1608 2450
Q 1672 2069 1672 1716
Q 1672 791 1378 66
Q 1194 -400 613 -1306
L 222 -1306
z
" transform="scale(0.015625)"/>
     </defs>
     <use xlink:href="#Helvetica-28"/>
     <use xlink:href="#Helvetica-32" transform="translate(33.300781 0)"/>
     <use xlink:href="#Helvetica-30" transform="translate(88.916016 0)"/>
     <use xlink:href="#Helvetica-32" transform="translate(144.53125 0)"/>
     <use xlink:href="#Helvetica-35" transform="translate(200.146484 0)"/>
     <use xlink:href="#Helvetica-29" transform="translate(255.761719 0)"/>
    </g>
   </g>
   <g id="text_14">
    <!-- arXiv Preprint Growth (1991-2025) -->
    <g style="fill: #333333" transform="translate(60.762969 10.96875) scale(0.1 -0.1)">
     <defs>
      <path id="Helvetica-58" d="M 881 0
L 131 0
L 1775 2353
L 234 4591
L 1013 4591
L 2184 2834
L 3347 4591
L 4088 4591
L 2547 2353
L 4163 0
L 3391 0
L 2153 1888
L 881 0
z
" transform="scale(0.015625)"/>
      <path id="Helvetica-76" d="M 688 3347
L 1581 622
L 2516 3347
L 3131 3347
L 1869 0
L 1269 0
L 34 3347
L 688 3347
z
" transform="scale(0.015625)"/>
      <path id="Helvetica-70" d="M 1825 378
Q 2219 378 2480 708
Q 2741 1038 2741 1694
Q 2741 2094 2625 2381
Q 2406 2934 1825 2934
Q 1241 2934 1025 2350
Q 909 2038 909 1556
Q 909 1169 1025 897
Q 1244 378 1825 378
z
M 369 3331
L 916 3331
L 916 2888
Q 1084 3116 1284 3241
Q 1569 3428 1953 3428
Q 2522 3428 2919 2992
Q 3316 2556 3316 1747
Q 3316 653 2744 184
Q 2381 -113 1900 -113
Q 1522 -113 1266 53
Q 1116 147 931 375
L 931 -1334
L 369 -1334
L 369 3331
z
" transform="scale(0.015625)"/>
      <path id="Helvetica-47" d="M 2472 4709
Q 3119 4709 3591 4459
Q 4275 4100 4428 3200
L 3813 3200
Q 3700 3703 3347 3933
Q 2994 4163 2456 4163
Q 1819 4163 1383 3684
Q 947 3206 947 2259
Q 947 1441 1306 927
Q 1666 413 2478 413
Q 3100 413 3508 773
Q 3916 1134 3925 1941
L 2488 1941
L 2488 2456
L 4503 2456
L 4503 0
L 4103 0
L 3953 591
Q 3638 244 3394 109
Q 2984 -122 2353 -122
Q 1538 -122 950 406
Q 309 1069 309 2225
Q 309 3378 934 4059
Q 1528 4709 2472 4709
z
M 2369 4716
L 2369 4716
z
" transform="scale(0.015625)"/>
      <path id="Helvetica-77" d="M 672 3347
L 1316 709
L 1969 3347
L 2600 3347
L 3256 725
L 3941 3347
L 4503 3347
L 3531 0
L 2947 0
L 2266 2591
L 1606 0
L 1022 0
L 56 3347
L 672 3347
z
" transform="scale(0.015625)"/>
      <path id="Helvetica-2d" d="M 266 2072
L 1834 2072
L 1834 1494
L 266 1494
L 266 2072
z
" transform="scale(0.015625)"/>
     </defs>
     <use xlink:href="#Helvetica-61"/>
     <use xlink:href="#Helvetica-72" transform="translate(55.615234 0)"/>
     <use xlink:href="#Helvetica-58" transform="translate(88.916016 0)"/>
     <use xlink:href="#Helvetica-69" transform="translate(155.615234 0)"/>
     <use xlink:href="#Helvetica-76" transform="translate(177.832031 0)"/>
     <use xlink:href="#Helvetica-20" transform="translate(227.832031 0)"/>
     <use xlink:href="#Helvetica-50" transform="translate(255.615234 0)"/>
     <use xlink:href="#Helvetica-72" transform="translate(322.314453 0)"/>
     <use xlink:href="#Helvetica-65" transform="translate(355.615234 0)"/>
     <use xlink:href="#Helvetica-70" transform="translate(411.230469 0)"/>
     <use xlink:href="#Helvetica-72" transform="translate(466.845703 0)"/>
     <use xlink:href="#Helvetica-69" transform="translate(500.146484 0)"/>
     <use xlink:href="#Helvetica-6e" transform="translate(522.363281 0)"/>
     <use xlink:href="#Helvetica-74" transform="translate(577.978516 0)"/>
     <use xlink:href="#Helvetica-20" transform="translate(605.761719 0)"/>
     <use xlink:href="#Helvetica-47" transform="translate(633.544922 0)"/>
     <use xlink:href="#Helvetica-72" transform="translate(711.328125 0)"/>
     <use xlink:href="#Helvetica-6f" transform="translate(744.628906 0)"/>
     <use xlink:href="#Helvetica-77" transform="translate(800.244141 0)"/>
     <use xlink:href="#Helvetica-74" transform="translate(872.460938 0)"/>
     <use xlink:href="#Helvetica-68" transform="translate(900.244141 0)"/>
     <use xlink:href="#Helvetica-20" transform="translate(955.859375 0)"/>
     <use xlink:href="#Helvetica-28" transform="translate(983.642578 0)"/>
     <use xlink:href="#Helvetica-31" transform="translate(1016.943359 0)"/>
     <use xlink:href="#Helvetica-39" transform="translate(1072.558594 0)"/>
     <use xlink:href="#Helvetica-39" transform="translate(1128.173828 0)"/>
     <use xlink:href="#Helvetica-31" transform="translate(1183.789062 0)"/>
     <use xlink:href="#Helvetica-2d" transform="translate(1239.404297 0)"/>
     <use xlink:href="#Helvetica-32" transform="translate(1272.705078 0)"/>
     <use xlink:href="#Helvetica-30" transform="translate(1328.320312 0)"/>
     <use xlink:href="#Helvetica-32" transform="translate(1383.935547 0)"/>
     <use xlink:href="#Helvetica-35" transform="translate(1439.550781 0)"/>
     <use xlink:href="#Helvetica-29" transform="translate(1495.166016 0)"/>
    </g>
   </g>
  </g>
 </g>
 <defs>
  <clipPath id="pbd712879ea">
   <rect x="38.170938" y="20.96875" width="198.02" height="223.01125"/>
  </clipPath>
 </defs>
</svg>
